<svg width="480" height="436" viewBox="0 0 480 436" fill="none" xmlns="http://www.w3.org/2000/svg">
<path d="M271.045 0C276.598 0 280.635 4.03623 281.646 9.08398L286.188 40.8828C286.455 42.9033 287.318 44.8002 288.667 46.3281C290.016 47.8557 291.789 48.9466 293.761 49.4619C300.852 51.355 307.723 53.6894 314.425 56.415C298.676 67.713 280.949 76.1937 272.649 85.0117C252.937 105.957 268.953 131.83 278.193 139.839C275.73 91.1725 308.187 82.7041 323.78 79.4678C351.347 73.7463 373.204 68.463 386.757 47.6758C387.066 47.9171 387.362 48.1756 387.642 48.4551L398.804 59.7471C390.073 67.9256 376.025 75.5031 353.36 81.3154C333.282 86.4645 334.263 104.314 336.111 109.653C344.12 93.0204 354.892 90.9369 365.682 89.3242C385.787 86.319 400.43 79.7572 409.806 70.877L431.545 92.8691C435.08 96.4047 435.585 102.46 432.556 106.496L413.377 132.24C410.848 135.771 410.847 140.318 412.87 143.849C420.442 157.475 426.497 171.612 430.538 186.75C431.053 188.721 432.144 190.495 433.672 191.844C435.2 193.192 437.097 194.055 439.117 194.321L470.916 198.863C475.964 199.369 480 203.912 480 208.96V271.542C480 277.095 475.964 281.132 470.916 282.144L439.117 286.686C435.081 287.186 431.55 290.217 430.538 294.258C426.497 309.396 420.442 323.527 412.87 337.158C410.847 341.194 410.848 345.231 413.377 348.762L432.556 374.507C435.585 378.543 435.08 384.602 431.545 388.133L387.637 432.046C384.183 435.5 378.327 436.055 374.295 433.259V275.366H357.662L346.573 123.822H323.164L314.54 275.366H300.987L290.515 156.472H264.641L260.328 275.366H239.919V214.324L108.784 288.304V430.979L105.994 433.058C101.953 436.082 95.8988 435.581 92.3633 432.046L48.4551 388.133C44.9196 384.602 44.4137 378.543 47.4434 374.512L66.623 348.767C69.1519 345.231 69.152 340.689 67.1289 337.158C59.5573 323.527 53.5022 309.396 49.4609 294.258C48.4544 290.217 44.9189 287.191 40.8828 286.686L9.08398 282.144C4.03639 281.132 0.000309008 276.59 0 271.542V209.46C0.000146845 203.906 4.03626 199.87 9.08398 198.858L40.8828 194.316C42.9031 194.05 44.7984 193.187 46.3262 191.839C47.8541 190.49 48.9455 188.717 49.4609 186.745C53.5022 171.607 59.5571 157.469 67.1289 143.843C69.1518 139.807 69.1517 135.766 66.623 132.235L47.4434 106.496C44.4137 102.455 44.9197 96.3998 48.4551 92.8643L92.3633 48.4551C95.8988 44.9199 101.953 44.4198 105.989 47.4443L131.733 66.623C135.269 69.1519 139.811 69.1528 143.342 67.1299C156.973 59.5582 171.105 53.5032 186.243 49.4619C188.215 48.9466 189.989 47.8559 191.338 46.3281C192.687 44.8002 193.548 42.9033 193.814 40.8828L198.357 9.08398C199.369 4.03623 203.912 0 208.96 0H271.045Z" fill="url(#paint0_linear_3330_1147)"/>
<path d="M199.863 368H167.171V318H199.863V368Z" fill="url(#paint1_linear_3330_1147)"/>
<path d="M265.248 368H232.556V318H265.248V368Z" fill="url(#paint2_linear_3330_1147)"/>
<mask id="mask0_3330_1147" style="mask-type:alpha" maskUnits="userSpaceOnUse" x="167" y="318" width="99" height="50">
<path d="M199.863 368H167.171V318H199.863V368Z" fill="url(#paint3_linear_3330_1147)"/>
<path d="M265.248 368H232.556V318H265.248V368Z" fill="url(#paint4_linear_3330_1147)"/>
</mask>
<g mask="url(#mask0_3330_1147)">
<path d="M277.496 68.3988C286.674 41.6051 288.36 16.1943 281.636 5.95066L277.733 0L286.15 1.17797C290.782 1.82664 299.757 3.77266 306.095 5.50245L317.621 8.64896L318.957 21.6314C320.828 39.8055 317.312 62.6824 308.996 86.4175C303.779 101.31 301.615 112.067 300.831 126.959C299.868 145.329 300.423 149.109 306.748 167.258C316.481 195.185 329.595 218.674 355.926 255.342C380.46 289.508 388.173 303.261 392.527 320.606C403.755 365.344 379.48 405.735 347.051 396.282C324.943 389.836 275.426 358.164 252.118 335.561C222.372 306.714 214.467 304.051 185.895 313.259C174.162 317.041 164.966 318.248 147.849 318.252C117.474 318.264 107.84 313.624 75.771 283.537C52.1964 261.417 34.4658 249.712 24.5385 249.712C21.814 249.712 15.1777 252.288 9.79194 255.437L0 261.162V245.583V230.004L7.05388 228.596C29.1116 224.195 39.3347 229.74 74.2429 265.052C107.528 298.722 116.291 303.912 142.547 305.518C156.616 306.378 163.645 305.477 180.457 300.666C214.747 290.85 222.912 292.528 247.136 314.374C271.165 336.041 309.21 357.702 331.69 362.513C341.457 364.603 344.295 364.36 351.418 360.826C364.885 354.145 369.095 346.438 368.842 328.924C368.549 308.531 360.833 292.625 332.437 253.872C313.84 228.492 307.307 217.242 295.044 189.471C272.959 139.458 269.966 129.888 269.867 108.941C269.797 94.1813 271.178 86.8499 277.496 68.3988Z" fill="white" fill-opacity="0.16"/>
<path d="M153.124 14.9352C154.24 13.8226 161.124 11.0094 168.429 8.68274C185.082 3.37399 184.852 3.37625 192.994 8.41246C211.332 19.753 213.257 23.868 215.26 56.011C216.603 77.523 223.58 96.5395 247.08 142.726C257.163 162.546 269.869 189.196 275.316 201.946C280.76 214.697 288.789 230.407 293.155 236.858C319.989 276.499 324.77 284.535 327.167 294.037C329.532 303.412 329.349 305.225 325.514 310.369C316.002 323.126 282.536 316.716 250.831 296.065C242.08 290.364 232.277 284.697 229.047 283.472C219.67 279.915 198.576 280.879 180.426 285.695C171.2 288.145 157.048 290.177 148.978 290.211C121.212 290.332 104.991 280.56 74.2316 245.175C53.7358 221.6 50.9617 218.834 35.8021 206.893C29.1455 201.649 21.2542 193.935 18.2611 189.75C15.2702 185.565 11.9679 182.142 10.925 182.142C9.88219 182.142 9.02896 179.759 9.02896 176.846C9.02896 168.97 13.5976 157.366 16.6991 157.366C23.9719 157.366 45.998 181.835 66.8369 213.066C79.044 231.364 94.1721 251.498 100.454 257.811C120.108 277.566 146.52 283.503 179.451 275.568C186.9 273.773 200.484 272.289 209.639 272.271C224.06 272.239 228.735 273.348 244.626 280.56C265.754 290.148 286.888 292.875 294.383 286.981C303.066 280.147 299.348 267.742 278.817 235.038C272.584 225.109 265.616 212.44 263.334 206.883C254.197 184.63 242.726 161.938 230.327 141.6C223.153 129.831 213.494 113.614 208.862 105.562C204.233 97.5102 192.877 80.2799 183.629 67.2727C161.433 36.0553 150.594 17.4601 153.124 14.9352Z" fill="white" fill-opacity="0.16"/>
<path d="M336.227 129.212C346.112 83.753 348.355 68.5092 348.5 45.7832L348.658 20.9174L357.366 25.5122L366.075 30.1092L364.775 68.3988C364.059 89.4581 362.829 120.953 362.039 138.386C360.849 164.688 361.265 172.353 364.479 183.432C370.278 203.422 381.144 225.371 399.52 254.216C408.594 268.462 419.37 287.409 423.463 296.321C432.995 317.077 440.171 347.278 440.128 366.448C440.094 381.46 440.083 381.487 426.72 397.575C413.278 413.758 383.972 438.194 366.384 447.883L356.937 453.086L344.94 443.182C338.342 437.736 330.404 430.912 327.3 428.02C324.196 425.128 308.484 412.494 292.385 399.944C276.284 387.397 254.66 369.387 244.328 359.925C220.022 337.661 214.596 335.836 190.737 341.902C169.307 347.35 154.738 347.713 133.888 343.321C112.311 338.773 99.9393 332.764 78.394 316.358C56.4739 299.668 43.2758 292.506 34.45 292.506C27.9943 292.506 19.1956 297.342 14.1507 303.664C10.3878 308.378 7.68817 304.2 5.62505 290.472C4.16462 280.758 4.50092 279.823 11.5458 273.953C26.7257 261.307 44.6527 267.365 76.437 295.878C97.12 314.435 108.379 321.599 122.934 325.469C139.996 330.003 167.354 329.286 189.157 323.737C215.397 317.059 221.085 318.996 246.028 343.111C267.21 363.594 288.59 380.257 326.302 405.679C354.567 424.736 364.158 428.655 378.548 427.038C411.247 423.36 428.582 362.418 411.143 312.441C405.292 295.675 399.322 285.265 374.23 248.092C349.31 211.174 344.985 203.482 338.78 185.029C333.76 170.092 332.643 145.697 336.227 129.212Z" fill="white" fill-opacity="0.16"/>
<path d="M422.745 259.239C383.984 194.169 379.465 174.797 382.663 87.4243C384.203 45.3439 384.546 42.774 388.345 44.8011C392.049 46.7809 392.455 52.182 393.207 109.484L394.028 172.006L401.583 193.98C405.739 206.066 415.635 227.35 423.573 241.279C443.455 276.163 459.757 308.977 464.211 323.072C467.842 334.57 467.813 335.109 463.12 342.42C458.881 349.026 458.292 349.332 458.258 344.942C458.152 331.1 441.245 290.296 422.745 259.239Z" fill="white" fill-opacity="0.16"/>
<path d="M76.7462 63.4122C76.7462 62.3491 80.9943 58.2228 86.186 54.2407C91.3776 50.2585 96.0501 47.0017 96.5715 47.0017C97.0929 47.0017 109.772 58.4052 124.751 72.3404C160.548 105.65 205.752 156.535 221.234 180.948C228.049 191.694 239.087 208.773 245.764 218.904C261.07 242.126 263.111 248.444 257.204 254.338C251.928 259.602 252.662 259.575 232.119 255.264C220.46 252.815 205.411 251.973 180.62 252.378C148.034 252.912 144.847 252.592 134.92 247.777C121.424 241.232 109.381 227.855 86.8518 194.381C76.3918 178.84 60.4647 159.177 48.4404 146.962C28.0936 126.295 27.9311 126.041 31.4005 120.333C33.3282 117.164 36.0255 114.572 37.3979 114.572C42.5738 114.572 71.8976 147.404 101.695 186.561C132.459 226.988 144.262 234.116 179.886 233.779C207.174 233.52 217.709 231.411 218.438 226.062C219.347 219.402 197.231 185.121 182.839 170.88C175.952 164.067 163.219 152.733 154.54 145.692C138.242 132.471 118.891 113.245 104.729 96.2016C100.258 90.8208 92.1338 81.6763 86.6735 75.8811C81.2133 70.0858 76.7462 64.4753 76.7462 63.4122Z" fill="white" fill-opacity="0.16"/>
<path d="M44.9191 103.31C42.5445 103.31 48.0499 94.5034 58.5483 81.5119C61.7287 77.5748 64.8934 74.2819 65.5818 74.1918C67.8707 73.8945 80.4661 88.4468 95.0546 108.245C141.511 171.294 151.833 191.151 138.15 191.151C129.295 191.151 112.582 176.482 80.5158 140.561C62.2254 120.074 46.2057 103.31 44.9191 103.31Z" fill="white" fill-opacity="0.16"/>
<path d="M461.57 246.477C433.742 188.928 422.104 144.588 422.104 96.134C422.104 86.4535 422.702 78.5343 423.436 78.5343C425.598 78.5343 432.648 87.4828 445.965 107.134L458.479 125.597L454.963 135.931C453.03 141.613 451.448 149.231 451.448 152.859C451.448 171.267 469.705 239.488 479.901 259.171C483.512 266.149 484.171 285.749 480.792 285.749C479.551 285.749 478.535 284.807 478.535 283.659C478.535 282.508 470.901 265.777 461.57 246.477Z" fill="white" fill-opacity="0.16"/>
<path d="M24.7823 348.814C18.8367 337.859 19.2678 333.746 27.1907 325.84C37.82 315.234 49.3862 317.313 80.3894 335.404C134.387 366.912 153.558 372.709 184.491 366.889C216.171 360.932 220.072 361.134 233.085 369.425C250.068 380.246 303.19 426.2 321.235 445.68L336.611 462.284L330.711 465.368C324.934 468.388 324.388 468.008 304.436 446.971C284.514 425.966 241.674 391.805 223.216 382.205C214.131 377.48 213.634 377.459 197.829 381.146C170.34 387.561 138.545 385.216 116.652 375.162C110.223 372.207 97.5106 364.819 88.4048 358.74C62.336 341.341 55.6545 337.629 50.3297 337.589C41.7522 337.526 34.1791 342.411 31.572 349.688L29.0574 356.697L24.7823 348.814Z" fill="white" fill-opacity="0.16"/>
<path d="M67.3583 406.947C58.4738 396.361 58.3181 395.886 61.889 390.449C67.3357 382.153 74.7011 383.347 99.1312 396.489C130.259 413.233 139.272 417.411 155.75 422.727C170.821 427.59 206.452 434.383 216.957 434.396C230.839 434.412 288.351 471.915 282.875 477.38C281.787 478.465 272.291 479.612 261.774 479.925C235.04 480.724 210.926 475.163 187.351 462.764C116.094 425.283 98.8942 417.508 87.6148 417.677C77.0171 417.837 76.078 417.339 67.3583 406.947Z" fill="white" fill-opacity="0.16"/>
</g>
<mask id="mask1_3330_1147" style="mask-type:alpha" maskUnits="userSpaceOnUse" x="0" y="0" width="480" height="436">
<path d="M271.045 0C276.599 0 280.635 4.03616 281.646 9.08398L286.188 40.8828C286.455 42.9032 287.318 44.7992 288.667 46.3271C290.016 47.8548 291.789 48.9466 293.761 49.4619C300.852 51.355 307.723 53.6894 314.425 56.415C298.676 67.713 280.949 76.1937 272.649 85.0117C252.937 105.957 268.953 131.83 278.193 139.839C275.73 91.1725 308.187 82.7041 323.78 79.4678C351.347 73.7463 373.204 68.463 386.757 47.6758C387.065 47.9169 387.362 48.1748 387.642 48.4541L398.804 59.7461C390.073 67.9248 376.025 75.503 353.36 81.3154C333.282 86.4645 334.263 104.314 336.111 109.653C344.12 93.0204 354.892 90.9369 365.682 89.3242C385.788 86.3189 400.431 79.7574 409.807 70.877L431.545 92.8691C435.08 96.4047 435.585 102.459 432.556 106.495L413.377 132.24C410.848 135.771 410.847 140.318 412.87 143.849C420.442 157.475 426.497 171.611 430.538 186.749C431.053 188.721 432.144 190.495 433.672 191.844C435.2 193.192 437.097 194.055 439.117 194.321L470.916 198.863C475.964 199.369 480 203.911 480 208.959V271.542C480 277.095 475.964 281.132 470.916 282.144L439.117 286.686C435.081 287.186 431.55 290.216 430.538 294.257C426.497 309.395 420.442 323.527 412.87 337.158C410.847 341.194 410.848 345.231 413.377 348.762L432.556 374.506C435.585 378.542 435.08 384.601 431.545 388.132L387.637 432.045C384.183 435.499 378.327 436.054 374.295 433.258V275.366H357.662L346.573 123.822H323.164L314.54 275.366H300.987L290.515 156.472H264.641L260.328 275.366H239.919V214.324L108.784 288.304V430.978L105.994 433.057C101.953 436.081 95.8988 435.58 92.3633 432.045L48.4551 388.132C44.9197 384.601 44.4137 378.542 47.4434 374.511L66.623 348.767C69.1519 345.231 69.1518 340.689 67.1289 337.158C59.5573 323.527 53.5022 309.395 49.4609 294.257C48.4544 290.216 44.9189 287.191 40.8828 286.686L9.08398 282.144C4.03641 281.132 0.000382206 276.59 0 271.542V209.46C0.000132058 203.907 4.0363 199.87 9.08398 198.858L40.8828 194.316C42.903 194.05 44.7984 193.187 46.3262 191.839C47.8541 190.49 48.9456 188.716 49.4609 186.744C53.5022 171.606 59.5572 157.469 67.1289 143.843C69.1518 139.807 69.1517 135.766 66.623 132.235L47.4434 106.495C44.4137 102.454 44.9197 96.3998 48.4551 92.8643L92.3633 48.4541C95.8988 44.9192 101.953 44.419 105.989 47.4434L131.733 66.623C135.269 69.152 139.811 69.152 143.342 67.1289C156.973 59.5572 171.105 53.5032 186.243 49.4619C188.215 48.9466 189.989 47.8549 191.338 46.3271C192.686 44.7993 193.548 42.9032 193.814 40.8828L198.357 9.08398C199.369 4.03614 203.912 0 208.96 0H271.045Z" fill="url(#paint5_linear_3330_1147)"/>
</mask>
<g mask="url(#mask1_3330_1147)">
<path d="M277.496 68.3988C286.674 41.6051 288.36 16.1943 281.636 5.95066L277.733 0L286.15 1.17797C290.782 1.82664 299.757 3.77266 306.095 5.50245L317.621 8.64896L318.957 21.6314C320.828 39.8055 317.312 62.6824 308.996 86.4175C303.779 101.31 301.615 112.067 300.831 126.959C299.868 145.329 300.423 149.109 306.748 167.258C316.481 195.185 329.595 218.674 355.926 255.342C380.46 289.508 388.173 303.261 392.527 320.606C403.755 365.344 379.48 405.735 347.051 396.282C324.943 389.836 275.426 358.164 252.118 335.561C222.372 306.714 214.467 304.051 185.895 313.259C174.162 317.041 164.966 318.248 147.849 318.252C117.474 318.264 107.84 313.624 75.771 283.537C52.1964 261.417 34.4658 249.712 24.5385 249.712C21.814 249.712 15.1777 252.288 9.79194 255.437L0 261.162V245.583V230.004L7.05388 228.596C29.1116 224.195 39.3347 229.74 74.2429 265.052C107.528 298.722 116.291 303.912 142.547 305.518C156.616 306.378 163.645 305.477 180.457 300.666C214.747 290.85 222.912 292.528 247.136 314.374C271.165 336.041 309.21 357.702 331.69 362.513C341.457 364.603 344.295 364.36 351.418 360.826C364.885 354.145 369.095 346.438 368.842 328.924C368.549 308.531 360.833 292.625 332.437 253.872C313.84 228.492 307.307 217.242 295.044 189.471C272.959 139.458 269.966 129.888 269.867 108.941C269.797 94.1813 271.178 86.8499 277.496 68.3988Z" fill="white" fill-opacity="0.16"/>
<path d="M153.124 14.9352C154.24 13.8226 161.124 11.0094 168.429 8.68274C185.082 3.37399 184.852 3.37625 192.994 8.41246C211.332 19.753 213.257 23.868 215.26 56.011C216.603 77.523 223.58 96.5395 247.08 142.726C257.163 162.546 269.869 189.196 275.316 201.946C280.76 214.697 288.789 230.407 293.155 236.858C319.989 276.499 324.77 284.535 327.167 294.037C329.532 303.412 329.349 305.225 325.514 310.369C316.002 323.126 282.536 316.716 250.831 296.065C242.08 290.364 232.277 284.697 229.047 283.472C219.67 279.915 198.576 280.879 180.426 285.695C171.2 288.145 157.048 290.177 148.978 290.211C121.212 290.332 104.991 280.56 74.2316 245.175C53.7358 221.6 50.9617 218.834 35.8021 206.893C29.1455 201.649 21.2542 193.935 18.2611 189.75C15.2702 185.565 11.9679 182.142 10.925 182.142C9.88219 182.142 9.02896 179.759 9.02896 176.846C9.02896 168.97 13.5976 157.366 16.6991 157.366C23.9719 157.366 45.998 181.835 66.8369 213.066C79.044 231.364 94.1721 251.498 100.454 257.811C120.108 277.566 146.52 283.503 179.451 275.568C186.9 273.773 200.484 272.289 209.639 272.271C224.06 272.239 228.735 273.348 244.626 280.56C265.754 290.148 286.888 292.875 294.383 286.981C303.066 280.147 299.348 267.742 278.817 235.038C272.584 225.109 265.616 212.44 263.334 206.883C254.197 184.63 242.726 161.938 230.327 141.6C223.153 129.831 213.494 113.614 208.862 105.562C204.233 97.5102 192.877 80.2799 183.629 67.2727C161.433 36.0553 150.594 17.4601 153.124 14.9352Z" fill="white" fill-opacity="0.16"/>
<path d="M336.227 129.212C346.112 83.753 348.355 68.5092 348.5 45.7832L348.658 20.9174L357.366 25.5122L366.075 30.1092L364.775 68.3988C364.059 89.4581 362.829 120.953 362.039 138.386C360.849 164.688 361.265 172.353 364.479 183.432C370.278 203.422 381.144 225.371 399.52 254.216C408.594 268.462 419.37 287.409 423.463 296.321C432.995 317.077 440.171 347.278 440.128 366.448C440.094 381.46 440.083 381.487 426.72 397.575C413.278 413.758 383.972 438.194 366.384 447.883L356.937 453.086L344.94 443.182C338.342 437.736 330.404 430.912 327.3 428.02C324.196 425.128 308.484 412.494 292.385 399.944C276.284 387.397 254.66 369.387 244.328 359.925C220.022 337.661 214.596 335.836 190.737 341.902C169.307 347.35 154.738 347.713 133.888 343.321C112.311 338.773 99.9393 332.764 78.394 316.358C56.4739 299.668 43.2758 292.506 34.45 292.506C27.9943 292.506 19.1956 297.342 14.1507 303.664C10.3878 308.378 7.68817 304.2 5.62505 290.472C4.16462 280.758 4.50092 279.823 11.5458 273.953C26.7257 261.307 44.6527 267.365 76.437 295.878C97.12 314.435 108.379 321.599 122.934 325.469C139.996 330.003 167.354 329.286 189.157 323.737C215.397 317.059 221.085 318.996 246.028 343.111C267.21 363.594 288.59 380.257 326.302 405.679C354.567 424.736 364.158 428.655 378.548 427.038C411.247 423.36 428.582 362.418 411.143 312.441C405.292 295.675 399.322 285.265 374.23 248.092C349.31 211.174 344.985 203.482 338.78 185.029C333.76 170.092 332.643 145.697 336.227 129.212Z" fill="white" fill-opacity="0.16"/>
<path d="M422.745 259.239C383.984 194.169 379.465 174.797 382.663 87.4243C384.203 45.3439 384.546 42.774 388.345 44.8011C392.049 46.7809 392.455 52.182 393.207 109.484L394.028 172.006L401.583 193.98C405.739 206.066 415.635 227.35 423.573 241.279C443.455 276.163 459.757 308.977 464.211 323.072C467.842 334.57 467.813 335.109 463.12 342.42C458.881 349.026 458.292 349.332 458.258 344.942C458.152 331.1 441.245 290.296 422.745 259.239Z" fill="white" fill-opacity="0.16"/>
<path d="M76.7462 63.4122C76.7462 62.3491 80.9943 58.2228 86.186 54.2407C91.3776 50.2585 96.0501 47.0017 96.5715 47.0017C97.0929 47.0017 109.772 58.4052 124.751 72.3404C160.548 105.65 205.752 156.535 221.234 180.948C228.049 191.694 239.087 208.773 245.764 218.904C261.07 242.126 263.111 248.444 257.204 254.338C251.928 259.602 252.662 259.575 232.119 255.264C220.46 252.815 205.411 251.973 180.62 252.378C148.034 252.912 144.847 252.592 134.92 247.777C121.424 241.232 109.381 227.855 86.8518 194.381C76.3918 178.84 60.4647 159.177 48.4404 146.962C28.0936 126.295 27.9311 126.041 31.4005 120.333C33.3282 117.164 36.0255 114.572 37.3979 114.572C42.5738 114.572 71.8976 147.404 101.695 186.561C132.459 226.988 144.262 234.116 179.886 233.779C207.174 233.52 217.709 231.411 218.438 226.062C219.347 219.402 197.231 185.121 182.839 170.88C175.952 164.067 163.219 152.733 154.54 145.692C138.242 132.471 118.891 113.245 104.729 96.2016C100.258 90.8208 92.1338 81.6763 86.6735 75.8811C81.2133 70.0858 76.7462 64.4753 76.7462 63.4122Z" fill="white" fill-opacity="0.16"/>
<path d="M44.9191 103.31C42.5445 103.31 48.0499 94.5034 58.5483 81.5119C61.7287 77.5748 64.8934 74.2819 65.5818 74.1918C67.8707 73.8945 80.4661 88.4468 95.0546 108.245C141.511 171.294 151.833 191.151 138.15 191.151C129.295 191.151 112.582 176.482 80.5158 140.561C62.2254 120.074 46.2057 103.31 44.9191 103.31Z" fill="white" fill-opacity="0.16"/>
<path d="M461.57 246.477C433.742 188.928 422.104 144.588 422.104 96.134C422.104 86.4535 422.702 78.5343 423.436 78.5343C425.598 78.5343 432.648 87.4828 445.965 107.134L458.479 125.597L454.963 135.931C453.03 141.613 451.448 149.231 451.448 152.859C451.448 171.267 469.705 239.488 479.901 259.171C483.512 266.149 484.171 285.749 480.792 285.749C479.551 285.749 478.535 284.807 478.535 283.659C478.535 282.508 470.901 265.777 461.57 246.477Z" fill="white" fill-opacity="0.16"/>
<path d="M24.7823 348.814C18.8367 337.859 19.2678 333.746 27.1907 325.84C37.82 315.234 49.3862 317.313 80.3894 335.404C134.387 366.912 153.558 372.709 184.491 366.889C216.171 360.932 220.072 361.134 233.085 369.425C250.068 380.246 303.19 426.2 321.235 445.68L336.611 462.284L330.711 465.368C324.934 468.388 324.388 468.008 304.436 446.971C284.514 425.966 241.674 391.805 223.216 382.205C214.131 377.48 213.634 377.459 197.829 381.146C170.34 387.561 138.545 385.216 116.652 375.162C110.223 372.207 97.5106 364.819 88.4048 358.74C62.336 341.341 55.6545 337.629 50.3297 337.589C41.7522 337.526 34.1791 342.411 31.572 349.688L29.0574 356.697L24.7823 348.814Z" fill="white" fill-opacity="0.16"/>
<path d="M67.3583 406.947C58.4738 396.361 58.3181 395.886 61.889 390.449C67.3357 382.153 74.7011 383.347 99.1312 396.489C130.259 413.233 139.272 417.411 155.75 422.727C170.821 427.59 206.452 434.383 216.957 434.396C230.839 434.412 288.351 471.915 282.875 477.38C281.787 478.465 272.291 479.612 261.774 479.925C235.04 480.724 210.926 475.163 187.351 462.764C116.094 425.283 98.8942 417.508 87.6148 417.677C77.0171 417.837 76.078 417.339 67.3583 406.947Z" fill="white" fill-opacity="0.16"/>
</g>
<defs>
<linearGradient id="paint0_linear_3330_1147" x1="235.003" y1="433.122" x2="234.869" y2="-0.0508574" gradientUnits="userSpaceOnUse">
<stop stop-color="#1160BE"/>
<stop offset="0.92707" stop-color="#189CD8"/>
</linearGradient>
<linearGradient id="paint1_linear_3330_1147" x1="216.209" y1="368" x2="226.782" y2="320.345" gradientUnits="userSpaceOnUse">
<stop stop-color="#BD2B22"/>
<stop offset="1" stop-color="#EF473C"/>
</linearGradient>
<linearGradient id="paint2_linear_3330_1147" x1="216.209" y1="368" x2="226.782" y2="320.345" gradientUnits="userSpaceOnUse">
<stop stop-color="#BD2B22"/>
<stop offset="1" stop-color="#EF473C"/>
</linearGradient>
<linearGradient id="paint3_linear_3330_1147" x1="216.209" y1="368" x2="226.782" y2="320.345" gradientUnits="userSpaceOnUse">
<stop stop-color="#BD2B22"/>
<stop offset="1" stop-color="#EF473C"/>
</linearGradient>
<linearGradient id="paint4_linear_3330_1147" x1="216.209" y1="368" x2="226.782" y2="320.345" gradientUnits="userSpaceOnUse">
<stop stop-color="#BD2B22"/>
<stop offset="1" stop-color="#EF473C"/>
</linearGradient>
<linearGradient id="paint5_linear_3330_1147" x1="235.003" y1="433.121" x2="234.869" y2="-0.0508573" gradientUnits="userSpaceOnUse">
<stop stop-color="#1160BE"/>
<stop offset="0.92707" stop-color="#189CD8"/>
</linearGradient>
</defs>
</svg>
